<?xml version="1.0" encoding="UTF-8" standalone="no"?>
<!DOCTYPE svg PUBLIC "-//W3C//DTD SVG 1.1//EN"
 "http://www.w3.org/Graphics/SVG/1.1/DTD/svg11.dtd">
<!-- Generated by graphviz version 2.47.0 (20210316.0004)
 -->
<!-- Title: dependencies Pages: 1 -->
<svg width="1543pt" height="211pt"
 viewBox="0.00 0.00 1543.00 211.00" xmlns="http://www.w3.org/2000/svg" xmlns:xlink="http://www.w3.org/1999/xlink">
<g id="graph0" class="graph" transform="scale(1 1) rotate(0) translate(4 207)">
<title>dependencies</title>
<polygon fill="white" stroke="transparent" points="-4,4 -4,-207 1539,-207 1539,4 -4,4"/>
<text text-anchor="start" x="746.51" y="-42.4" font-family="Times-12" font-weight="bold" font-size="14.00">Legend</text>
<polygon fill="#ffffb3" stroke="transparent" points="533.5,-10 533.5,-30 553.5,-30 553.5,-10 533.5,-10"/>
<text text-anchor="start" x="557.13" y="-15.4" font-family="Times-12" font-size="14.00"> &#160;Declarations</text>
<polygon fill="#8dd3c7" stroke="transparent" points="646.5,-10 646.5,-30 666.5,-30 666.5,-10 646.5,-10"/>
<text text-anchor="start" x="670.23" y="-15.4" font-family="Times-12" font-size="14.00"> &#160;Module</text>
<polygon fill="#80b1d3" stroke="transparent" points="732.5,-10 732.5,-30 752.5,-30 752.5,-10 732.5,-10"/>
<text text-anchor="start" x="756.28" y="-15.4" font-family="Times-12" font-size="14.00"> &#160;Bootstrap</text>
<polygon fill="#fdb462" stroke="transparent" points="829.5,-10 829.5,-30 849.5,-30 849.5,-10 829.5,-10"/>
<text text-anchor="start" x="853.17" y="-15.4" font-family="Times-12" font-size="14.00"> &#160;Providers</text>
<polygon fill="#fb8072" stroke="transparent" points="925.5,-10 925.5,-30 945.5,-30 945.5,-10 925.5,-10"/>
<text text-anchor="start" x="949.23" y="-15.4" font-family="Times-12" font-size="14.00"> &#160;Exports</text>
<g id="clust1" class="cluster">
<title>cluster_MoviesModule</title>
<polygon fill="none" stroke="black" stroke-dasharray="1,5" points="8,-70 8,-195 1527,-195 1527,-70 8,-70"/>
</g>
<g id="clust2" class="cluster">
<title>cluster_MoviesModule_declarations</title>
<polygon fill="none" stroke="black" points="303,-78 303,-130 1519,-130 1519,-78 303,-78"/>
</g>
<g id="clust9" class="cluster">
<title>cluster_MoviesModule_imports</title>
<polygon fill="none" stroke="black" points="16,-78 16,-130 295,-130 295,-78 16,-78"/>
</g>
<!-- DashboardComponent -->
<g id="node1" class="node">
<title>DashboardComponent</title>
<polygon fill="#ffffb3" stroke="black" points="1510.97,-122 1369.03,-122 1369.03,-86 1510.97,-86 1510.97,-122"/>
<text text-anchor="middle" x="1440" y="-99.8" font-family="Times,serif" font-size="14.00">DashboardComponent</text>
</g>
<!-- MoviesModule -->
<g id="node7" class="node">
<title>MoviesModule</title>
<polygon fill="#8dd3c7" stroke="black" points="808.55,-187 805.55,-191 784.55,-191 781.55,-187 707.45,-187 707.45,-151 808.55,-151 808.55,-187"/>
<text text-anchor="middle" x="758" y="-164.8" font-family="Times,serif" font-size="14.00">MoviesModule</text>
</g>
<!-- DashboardComponent&#45;&gt;MoviesModule -->
<g id="edge1" class="edge">
<title>DashboardComponent&#45;&gt;MoviesModule</title>
<path fill="none" stroke="black" d="M1440,-122.29C1440,-144.21 1440,-178 1440,-178 1440,-178 818.7,-178 818.7,-178"/>
<polygon fill="black" stroke="black" points="818.7,-174.5 808.7,-178 818.7,-181.5 818.7,-174.5"/>
</g>
<!-- IntervalProducersWinListComponent -->
<g id="node2" class="node">
<title>IntervalProducersWinListComponent</title>
<polygon fill="#ffffb3" stroke="black" points="1351.23,-122 1124.77,-122 1124.77,-86 1351.23,-86 1351.23,-122"/>
<text text-anchor="middle" x="1238" y="-99.8" font-family="Times,serif" font-size="14.00">IntervalProducersWinListComponent</text>
</g>
<!-- IntervalProducersWinListComponent&#45;&gt;MoviesModule -->
<g id="edge2" class="edge">
<title>IntervalProducersWinListComponent&#45;&gt;MoviesModule</title>
<path fill="none" stroke="black" d="M1238,-122.11C1238,-141.34 1238,-169 1238,-169 1238,-169 818.91,-169 818.91,-169"/>
<polygon fill="black" stroke="black" points="818.91,-165.5 808.91,-169 818.91,-172.5 818.91,-165.5"/>
</g>
<!-- MovieListComponent -->
<g id="node3" class="node">
<title>MovieListComponent</title>
<polygon fill="#ffffb3" stroke="black" points="1106.66,-122 967.34,-122 967.34,-86 1106.66,-86 1106.66,-122"/>
<text text-anchor="middle" x="1037" y="-99.8" font-family="Times,serif" font-size="14.00">MovieListComponent</text>
</g>
<!-- MovieListComponent&#45;&gt;MoviesModule -->
<g id="edge3" class="edge">
<title>MovieListComponent&#45;&gt;MoviesModule</title>
<path fill="none" stroke="black" d="M1037,-122.03C1037,-138.4 1037,-160 1037,-160 1037,-160 818.85,-160 818.85,-160"/>
<polygon fill="black" stroke="black" points="818.85,-156.5 808.85,-160 818.85,-163.5 818.85,-156.5"/>
</g>
<!-- MoviesYearListComponent -->
<g id="node4" class="node">
<title>MoviesYearListComponent</title>
<polygon fill="#ffffb3" stroke="black" points="949.3,-122 776.7,-122 776.7,-86 949.3,-86 949.3,-122"/>
<text text-anchor="middle" x="863" y="-99.8" font-family="Times,serif" font-size="14.00">MoviesYearListComponent</text>
</g>
<!-- MoviesYearListComponent&#45;&gt;MoviesModule -->
<g id="edge4" class="edge">
<title>MoviesYearListComponent&#45;&gt;MoviesModule</title>
<path fill="none" stroke="black" d="M792.81,-122.11C792.81,-122.11 792.81,-140.99 792.81,-140.99"/>
<polygon fill="black" stroke="black" points="789.31,-140.99 792.81,-150.99 796.31,-140.99 789.31,-140.99"/>
</g>
<!-- TopStudiosWinnerListComponent -->
<g id="node5" class="node">
<title>TopStudiosWinnerListComponent</title>
<polygon fill="#ffffb3" stroke="black" points="758.65,-122 549.35,-122 549.35,-86 758.65,-86 758.65,-122"/>
<text text-anchor="middle" x="654" y="-99.8" font-family="Times,serif" font-size="14.00">TopStudiosWinnerListComponent</text>
</g>
<!-- TopStudiosWinnerListComponent&#45;&gt;MoviesModule -->
<g id="edge5" class="edge">
<title>TopStudiosWinnerListComponent&#45;&gt;MoviesModule</title>
<path fill="none" stroke="black" d="M733.03,-122.11C733.03,-122.11 733.03,-140.99 733.03,-140.99"/>
<polygon fill="black" stroke="black" points="729.53,-140.99 733.03,-150.99 736.53,-140.99 729.53,-140.99"/>
</g>
<!-- YearMultipleWinnerListComponent -->
<g id="node6" class="node">
<title>YearMultipleWinnerListComponent</title>
<polygon fill="#ffffb3" stroke="black" points="531.01,-122 310.99,-122 310.99,-86 531.01,-86 531.01,-122"/>
<text text-anchor="middle" x="421" y="-99.8" font-family="Times,serif" font-size="14.00">YearMultipleWinnerListComponent</text>
</g>
<!-- YearMultipleWinnerListComponent&#45;&gt;MoviesModule -->
<g id="edge6" class="edge">
<title>YearMultipleWinnerListComponent&#45;&gt;MoviesModule</title>
<path fill="none" stroke="black" d="M421,-122.03C421,-138.4 421,-160 421,-160 421,-160 697.18,-160 697.18,-160"/>
<polygon fill="black" stroke="black" points="697.18,-163.5 707.18,-160 697.18,-156.5 697.18,-163.5"/>
</g>
<!-- MoviesRoutingModule -->
<g id="node8" class="node">
<title>MoviesRoutingModule</title>
<polygon fill="#8dd3c7" stroke="black" points="287.16,-122 284.16,-126 263.16,-126 260.16,-122 140.84,-122 140.84,-86 287.16,-86 287.16,-122"/>
<text text-anchor="middle" x="214" y="-99.8" font-family="Times,serif" font-size="14.00">MoviesRoutingModule</text>
</g>
<!-- MoviesRoutingModule&#45;&gt;MoviesModule -->
<g id="edge7" class="edge">
<title>MoviesRoutingModule&#45;&gt;MoviesModule</title>
<path fill="none" stroke="black" d="M214,-122.11C214,-141.34 214,-169 214,-169 214,-169 697.31,-169 697.31,-169"/>
<polygon fill="black" stroke="black" points="697.31,-172.5 707.31,-169 697.31,-165.5 697.31,-172.5"/>
</g>
<!-- SharedModule -->
<g id="node9" class="node">
<title>SharedModule</title>
<polygon fill="#8dd3c7" stroke="black" points="122.42,-122 119.42,-126 98.42,-126 95.42,-122 23.58,-122 23.58,-86 122.42,-86 122.42,-122"/>
<text text-anchor="middle" x="73" y="-99.8" font-family="Times,serif" font-size="14.00">SharedModule</text>
</g>
<!-- SharedModule&#45;&gt;MoviesModule -->
<g id="edge8" class="edge">
<title>SharedModule&#45;&gt;MoviesModule</title>
<path fill="none" stroke="black" d="M73,-122.29C73,-144.21 73,-178 73,-178 73,-178 697.35,-178 697.35,-178"/>
<polygon fill="black" stroke="black" points="697.35,-181.5 707.35,-178 697.35,-174.5 697.35,-181.5"/>
</g>
</g>
</svg>
