<?xml version="1.0" encoding="UTF-8" standalone="no"?>
<!DOCTYPE svg PUBLIC "-//W3C//DTD SVG 1.1//EN"
 "http://www.w3.org/Graphics/SVG/1.1/DTD/svg11.dtd">
<!-- Generated by graphviz version 2.47.0 (20210316.0004)
 -->
<!-- Title: dependencies Pages: 1 -->
<svg width="2213pt" height="290pt"
 viewBox="0.00 0.00 2213.00 290.00" xmlns="http://www.w3.org/2000/svg" xmlns:xlink="http://www.w3.org/1999/xlink">
<g id="graph0" class="graph" transform="scale(1 1) rotate(0) translate(4 286)">
<title>dependencies</title>
<polygon fill="white" stroke="transparent" points="-4,4 -4,-286 2209,-286 2209,4 -4,4"/>
<text text-anchor="start" x="1081.51" y="-42.4" font-family="Times-12" font-weight="bold" font-size="14.00">Legend</text>
<polygon fill="#ffffb3" stroke="transparent" points="868.5,-10 868.5,-30 888.5,-30 888.5,-10 868.5,-10"/>
<text text-anchor="start" x="892.13" y="-15.4" font-family="Times-12" font-size="14.00"> &#160;Declarations</text>
<polygon fill="#8dd3c7" stroke="transparent" points="981.5,-10 981.5,-30 1001.5,-30 1001.5,-10 981.5,-10"/>
<text text-anchor="start" x="1005.23" y="-15.4" font-family="Times-12" font-size="14.00"> &#160;Module</text>
<polygon fill="#80b1d3" stroke="transparent" points="1067.5,-10 1067.5,-30 1087.5,-30 1087.5,-10 1067.5,-10"/>
<text text-anchor="start" x="1091.28" y="-15.4" font-family="Times-12" font-size="14.00"> &#160;Bootstrap</text>
<polygon fill="#fdb462" stroke="transparent" points="1164.5,-10 1164.5,-30 1184.5,-30 1184.5,-10 1164.5,-10"/>
<text text-anchor="start" x="1188.17" y="-15.4" font-family="Times-12" font-size="14.00"> &#160;Providers</text>
<polygon fill="#fb8072" stroke="transparent" points="1260.5,-10 1260.5,-30 1280.5,-30 1280.5,-10 1260.5,-10"/>
<text text-anchor="start" x="1284.23" y="-15.4" font-family="Times-12" font-size="14.00"> &#160;Exports</text>
<g id="clust1" class="cluster">
<title>cluster_AppModule</title>
<polygon fill="none" stroke="black" stroke-dasharray="1,5" points="8,-70 8,-274 415,-274 415,-70 8,-70"/>
</g>
<g id="clust2" class="cluster">
<title>cluster_AppModule_declarations</title>
<polygon fill="none" stroke="black" points="16,-78 16,-130 138,-130 138,-78 16,-78"/>
</g>
<g id="clust4" class="cluster">
<title>cluster_AppModule_imports</title>
<polygon fill="none" stroke="black" points="146,-78 146,-130 407,-130 407,-78 146,-78"/>
</g>
<g id="clust6" class="cluster">
<title>cluster_AppModule_bootstrap</title>
<polygon fill="none" stroke="black" points="156,-214 156,-266 280,-266 280,-214 156,-214"/>
</g>
<g id="clust14" class="cluster">
<title>cluster_MoviesModule</title>
<polygon fill="none" stroke="black" stroke-dasharray="1,5" points="795,-70 795,-198 2197,-198 2197,-70 795,-70"/>
</g>
<g id="clust15" class="cluster">
<title>cluster_MoviesModule_declarations</title>
<polygon fill="none" stroke="black" points="973,-78 973,-130 2189,-130 2189,-78 973,-78"/>
</g>
<g id="clust22" class="cluster">
<title>cluster_MoviesModule_imports</title>
<polygon fill="none" stroke="black" points="803,-78 803,-130 965,-130 965,-78 803,-78"/>
</g>
<g id="clust32" class="cluster">
<title>cluster_SharedModule</title>
<polygon fill="none" stroke="black" stroke-dasharray="1,5" points="423,-138 423,-206 787,-206 787,-138 423,-138"/>
</g>
<g id="clust33" class="cluster">
<title>cluster_SharedModule_declarations</title>
<polygon fill="none" stroke="black" points="611,-146 611,-198 779,-198 779,-146 611,-146"/>
</g>
<g id="clust36" class="cluster">
<title>cluster_SharedModule_exports</title>
<polygon fill="none" stroke="black" points="431,-146 431,-198 603,-198 603,-146 431,-146"/>
</g>
<!-- AppComponent -->
<g id="node1" class="node">
<title>AppComponent</title>
<polygon fill="#ffffb3" stroke="black" points="129.94,-122 24.06,-122 24.06,-86 129.94,-86 129.94,-122"/>
<text text-anchor="middle" x="77" y="-99.8" font-family="Times,serif" font-size="14.00">AppComponent</text>
</g>
<!-- AppModule -->
<g id="node2" class="node">
<title>AppModule</title>
<polygon fill="#8dd3c7" stroke="black" points="259.66,-190 256.66,-194 235.66,-194 232.66,-190 176.34,-190 176.34,-154 259.66,-154 259.66,-190"/>
<text text-anchor="middle" x="218" y="-167.8" font-family="Times,serif" font-size="14.00">AppModule</text>
</g>
<!-- AppComponent&#45;&gt;AppModule -->
<g id="edge1" class="edge">
<title>AppComponent&#45;&gt;AppModule</title>
<path fill="none" stroke="black" d="M77,-122.22C77,-142.37 77,-172 77,-172 77,-172 166.08,-172 166.08,-172"/>
<polygon fill="black" stroke="black" points="166.08,-175.5 176.08,-172 166.08,-168.5 166.08,-175.5"/>
</g>
<!-- AppComponent  -->
<g id="node5" class="node">
<title>AppComponent </title>
<polygon fill="#80b1d3" stroke="black" points="272.44,-258 163.56,-258 163.56,-222 272.44,-222 272.44,-258"/>
<text text-anchor="middle" x="218" y="-235.8" font-family="Times,serif" font-size="14.00">AppComponent </text>
</g>
<!-- AppModule&#45;&gt;AppComponent  -->
<g id="edge4" class="edge">
<title>AppModule&#45;&gt;AppComponent </title>
<path fill="none" stroke="black" stroke-dasharray="1,5" d="M218,-190.22C218,-190.22 218,-211.73 218,-211.73"/>
<polygon fill="black" stroke="black" points="214.5,-211.73 218,-221.73 221.5,-211.73 214.5,-211.73"/>
</g>
<!-- AppRoutingModule -->
<g id="node3" class="node">
<title>AppRoutingModule</title>
<polygon fill="#8dd3c7" stroke="black" points="282.27,-122 279.27,-126 258.27,-126 255.27,-122 153.73,-122 153.73,-86 282.27,-86 282.27,-122"/>
<text text-anchor="middle" x="218" y="-99.8" font-family="Times,serif" font-size="14.00">AppRoutingModule</text>
</g>
<!-- AppRoutingModule&#45;&gt;AppModule -->
<g id="edge2" class="edge">
<title>AppRoutingModule&#45;&gt;AppModule</title>
<path fill="none" stroke="black" d="M218,-122.22C218,-122.22 218,-143.73 218,-143.73"/>
<polygon fill="black" stroke="black" points="214.5,-143.73 218,-153.73 221.5,-143.73 214.5,-143.73"/>
</g>
<!-- SharedModule -->
<g id="node4" class="node">
<title>SharedModule</title>
<polygon fill="#8dd3c7" stroke="black" points="399.42,-122 396.42,-126 375.42,-126 372.42,-122 300.58,-122 300.58,-86 399.42,-86 399.42,-122"/>
<text text-anchor="middle" x="350" y="-99.8" font-family="Times,serif" font-size="14.00">SharedModule</text>
</g>
<!-- SharedModule&#45;&gt;AppModule -->
<g id="edge3" class="edge">
<title>SharedModule&#45;&gt;AppModule</title>
<path fill="none" stroke="black" d="M333.6,-122.29C333.6,-144.21 333.6,-178 333.6,-178 333.6,-178 269.73,-178 269.73,-178"/>
<polygon fill="black" stroke="black" points="269.73,-174.5 259.73,-178 269.73,-181.5 269.73,-174.5"/>
</g>
<!-- MoviesModule -->
<g id="node12" class="node">
<title>MoviesModule</title>
<polygon fill="#8dd3c7" stroke="black" points="1478.55,-190 1475.55,-194 1454.55,-194 1451.55,-190 1377.45,-190 1377.45,-154 1478.55,-154 1478.55,-190"/>
<text text-anchor="middle" x="1428" y="-167.8" font-family="Times,serif" font-size="14.00">MoviesModule</text>
</g>
<!-- SharedModule&#45;&gt;MoviesModule -->
<g id="edge12" class="edge">
<title>SharedModule&#45;&gt;MoviesModule</title>
<path fill="none" stroke="black" d="M399.31,-98C514.4,-98 791.05,-98 791.05,-98 791.05,-98 791.05,-181 791.05,-181 791.05,-181 1367.22,-181 1367.22,-181"/>
<polygon fill="black" stroke="black" points="1367.22,-184.5 1377.22,-181 1367.22,-177.5 1367.22,-184.5"/>
</g>
<!-- SimpleTableComponent  -->
<g id="node15" class="node">
<title>SimpleTableComponent </title>
<polygon fill="#fb8072" stroke="black" points="595.37,-190 438.63,-190 438.63,-154 595.37,-154 595.37,-190"/>
<text text-anchor="middle" x="517" y="-167.8" font-family="Times,serif" font-size="14.00">SimpleTableComponent </text>
</g>
<!-- SharedModule&#45;&gt;SimpleTableComponent  -->
<g id="edge14" class="edge">
<title>SharedModule&#45;&gt;SimpleTableComponent </title>
<path fill="none" stroke="black" stroke-dasharray="5,2" d="M366.4,-122.27C366.4,-140.56 366.4,-166 366.4,-166 366.4,-166 428.61,-166 428.61,-166"/>
<polygon fill="black" stroke="black" points="428.61,-169.5 438.61,-166 428.61,-162.5 428.61,-169.5"/>
</g>
<!-- DashboardComponent -->
<g id="node6" class="node">
<title>DashboardComponent</title>
<polygon fill="#ffffb3" stroke="black" points="2180.97,-122 2039.03,-122 2039.03,-86 2180.97,-86 2180.97,-122"/>
<text text-anchor="middle" x="2110" y="-99.8" font-family="Times,serif" font-size="14.00">DashboardComponent</text>
</g>
<!-- DashboardComponent&#45;&gt;MoviesModule -->
<g id="edge5" class="edge">
<title>DashboardComponent&#45;&gt;MoviesModule</title>
<path fill="none" stroke="black" d="M2110,-122.25C2110,-145.02 2110,-181 2110,-181 2110,-181 1488.7,-181 1488.7,-181"/>
<polygon fill="black" stroke="black" points="1488.7,-177.5 1478.7,-181 1488.7,-184.5 1488.7,-177.5"/>
</g>
<!-- IntervalProducersWinListComponent -->
<g id="node7" class="node">
<title>IntervalProducersWinListComponent</title>
<polygon fill="#ffffb3" stroke="black" points="2021.23,-122 1794.77,-122 1794.77,-86 2021.23,-86 2021.23,-122"/>
<text text-anchor="middle" x="1908" y="-99.8" font-family="Times,serif" font-size="14.00">IntervalProducersWinListComponent</text>
</g>
<!-- IntervalProducersWinListComponent&#45;&gt;MoviesModule -->
<g id="edge6" class="edge">
<title>IntervalProducersWinListComponent&#45;&gt;MoviesModule</title>
<path fill="none" stroke="black" d="M1908,-122.22C1908,-142.37 1908,-172 1908,-172 1908,-172 1488.91,-172 1488.91,-172"/>
<polygon fill="black" stroke="black" points="1488.91,-168.5 1478.91,-172 1488.91,-175.5 1488.91,-168.5"/>
</g>
<!-- MovieListComponent -->
<g id="node8" class="node">
<title>MovieListComponent</title>
<polygon fill="#ffffb3" stroke="black" points="1776.66,-122 1637.34,-122 1637.34,-86 1776.66,-86 1776.66,-122"/>
<text text-anchor="middle" x="1707" y="-99.8" font-family="Times,serif" font-size="14.00">MovieListComponent</text>
</g>
<!-- MovieListComponent&#45;&gt;MoviesModule -->
<g id="edge7" class="edge">
<title>MovieListComponent&#45;&gt;MoviesModule</title>
<path fill="none" stroke="black" d="M1707,-122.02C1707,-139.37 1707,-163 1707,-163 1707,-163 1488.85,-163 1488.85,-163"/>
<polygon fill="black" stroke="black" points="1488.85,-159.5 1478.85,-163 1488.85,-166.5 1488.85,-159.5"/>
</g>
<!-- MoviesYearListComponent -->
<g id="node9" class="node">
<title>MoviesYearListComponent</title>
<polygon fill="#ffffb3" stroke="black" points="1619.3,-122 1446.7,-122 1446.7,-86 1619.3,-86 1619.3,-122"/>
<text text-anchor="middle" x="1533" y="-99.8" font-family="Times,serif" font-size="14.00">MoviesYearListComponent</text>
</g>
<!-- MoviesYearListComponent&#45;&gt;MoviesModule -->
<g id="edge8" class="edge">
<title>MoviesYearListComponent&#45;&gt;MoviesModule</title>
<path fill="none" stroke="black" d="M1462.81,-122.22C1462.81,-122.22 1462.81,-143.73 1462.81,-143.73"/>
<polygon fill="black" stroke="black" points="1459.31,-143.73 1462.81,-153.73 1466.31,-143.73 1459.31,-143.73"/>
</g>
<!-- TopStudiosWinnerListComponent -->
<g id="node10" class="node">
<title>TopStudiosWinnerListComponent</title>
<polygon fill="#ffffb3" stroke="black" points="1428.65,-122 1219.35,-122 1219.35,-86 1428.65,-86 1428.65,-122"/>
<text text-anchor="middle" x="1324" y="-99.8" font-family="Times,serif" font-size="14.00">TopStudiosWinnerListComponent</text>
</g>
<!-- TopStudiosWinnerListComponent&#45;&gt;MoviesModule -->
<g id="edge9" class="edge">
<title>TopStudiosWinnerListComponent&#45;&gt;MoviesModule</title>
<path fill="none" stroke="black" d="M1403.03,-122.22C1403.03,-122.22 1403.03,-143.73 1403.03,-143.73"/>
<polygon fill="black" stroke="black" points="1399.53,-143.73 1403.03,-153.73 1406.53,-143.73 1399.53,-143.73"/>
</g>
<!-- YearMultipleWinnerListComponent -->
<g id="node11" class="node">
<title>YearMultipleWinnerListComponent</title>
<polygon fill="#ffffb3" stroke="black" points="1201.01,-122 980.99,-122 980.99,-86 1201.01,-86 1201.01,-122"/>
<text text-anchor="middle" x="1091" y="-99.8" font-family="Times,serif" font-size="14.00">YearMultipleWinnerListComponent</text>
</g>
<!-- YearMultipleWinnerListComponent&#45;&gt;MoviesModule -->
<g id="edge10" class="edge">
<title>YearMultipleWinnerListComponent&#45;&gt;MoviesModule</title>
<path fill="none" stroke="black" d="M1091,-122.02C1091,-139.37 1091,-163 1091,-163 1091,-163 1367.18,-163 1367.18,-163"/>
<polygon fill="black" stroke="black" points="1367.18,-166.5 1377.18,-163 1367.18,-159.5 1367.18,-166.5"/>
</g>
<!-- MoviesRoutingModule -->
<g id="node13" class="node">
<title>MoviesRoutingModule</title>
<polygon fill="#8dd3c7" stroke="black" points="957.16,-122 954.16,-126 933.16,-126 930.16,-122 810.84,-122 810.84,-86 957.16,-86 957.16,-122"/>
<text text-anchor="middle" x="884" y="-99.8" font-family="Times,serif" font-size="14.00">MoviesRoutingModule</text>
</g>
<!-- MoviesRoutingModule&#45;&gt;MoviesModule -->
<g id="edge11" class="edge">
<title>MoviesRoutingModule&#45;&gt;MoviesModule</title>
<path fill="none" stroke="black" d="M884,-122.22C884,-142.37 884,-172 884,-172 884,-172 1367.31,-172 1367.31,-172"/>
<polygon fill="black" stroke="black" points="1367.31,-175.5 1377.31,-172 1367.31,-168.5 1367.31,-175.5"/>
</g>
<!-- SimpleTableComponent -->
<g id="node14" class="node">
<title>SimpleTableComponent</title>
<polygon fill="#ffffb3" stroke="black" points="771.37,-190 618.63,-190 618.63,-154 771.37,-154 771.37,-190"/>
<text text-anchor="middle" x="695" y="-167.8" font-family="Times,serif" font-size="14.00">SimpleTableComponent</text>
</g>
<!-- SimpleTableComponent&#45;&gt;SharedModule -->
<g id="edge13" class="edge">
<title>SimpleTableComponent&#45;&gt;SharedModule</title>
<path fill="none" stroke="black" d="M695,-153.73C695,-135.44 695,-110 695,-110 695,-110 409.43,-110 409.43,-110"/>
<polygon fill="black" stroke="black" points="409.43,-106.5 399.43,-110 409.43,-113.5 409.43,-106.5"/>
</g>
</g>
</svg>
